<?xml version="1.0" encoding="UTF-8" standalone="no"?>
<!-- Created with Inkscape (http://www.inkscape.org/) -->

<svg
   xmlns:dc="http://purl.org/dc/elements/1.1/"
   xmlns:cc="http://creativecommons.org/ns#"
   xmlns:rdf="http://www.w3.org/1999/02/22-rdf-syntax-ns#"
   xmlns:svg="http://www.w3.org/2000/svg"
   xmlns="http://www.w3.org/2000/svg"
   xmlns:sodipodi="http://sodipodi.sourceforge.net/DTD/sodipodi-0.dtd"
   xmlns:inkscape="http://www.inkscape.org/namespaces/inkscape"
   width="201.95766"
   height="219.34824"
   id="svg2878"
   version="1.1"
   inkscape:version="0.47 r22583"
   sodipodi:docname="login.svg">
  <defs
     id="defs2880">
    <inkscape:perspective
       sodipodi:type="inkscape:persp3d"
       inkscape:vp_x="0 : 526.18109 : 1"
       inkscape:vp_y="0 : 1000 : 0"
       inkscape:vp_z="744.09448 : 526.18109 : 1"
       inkscape:persp3d-origin="372.04724 : 350.78739 : 1"
       id="perspective2886" />
    <inkscape:perspective
       id="perspective2989"
       inkscape:persp3d-origin="0.5 : 0.33333333 : 1"
       inkscape:vp_z="1 : 0.5 : 1"
       inkscape:vp_y="0 : 1000 : 0"
       inkscape:vp_x="0 : 0.5 : 1"
       sodipodi:type="inkscape:persp3d" />
    <inkscape:perspective
       id="perspective3117"
       inkscape:persp3d-origin="0.5 : 0.33333333 : 1"
       inkscape:vp_z="1 : 0.5 : 1"
       inkscape:vp_y="0 : 1000 : 0"
       inkscape:vp_x="0 : 0.5 : 1"
       sodipodi:type="inkscape:persp3d" />
  </defs>
  <sodipodi:namedview
     id="base"
     pagecolor="#ffffff"
     bordercolor="#666666"
     borderopacity="1.0"
     inkscape:pageopacity="0.0"
     inkscape:pageshadow="2"
     inkscape:zoom="1.979899"
     inkscape:cx="-1.2855155"
     inkscape:cy="98.407075"
     inkscape:document-units="px"
     inkscape:current-layer="layer1"
     showgrid="false"
     inkscape:window-width="1536"
     inkscape:window-height="801"
     inkscape:window-x="-8"
     inkscape:window-y="-8"
     inkscape:window-maximized="1" />
  <metadata
     id="metadata2883">
    <rdf:RDF>
      <cc:Work
         rdf:about="">
        <dc:format>image/svg+xml</dc:format>
        <dc:type
           rdf:resource="http://purl.org/dc/dcmitype/StillImage" />
        <dc:title></dc:title>
      </cc:Work>
    </rdf:RDF>
  </metadata>
  <g
     inkscape:label="Capa 1"
     inkscape:groupmode="layer"
     id="layer1"
     transform="translate(-688.40207,-305.80299)">
    <g
       id="g3165">
      <path
         style="fill:#ffffff;fill-opacity:1"
         id="path5"
         d="m 890.35972,305.80299 -156.48557,0 c -25.12619,0 -45.47208,20.4536 -45.47208,45.65624 l 0,128.04568 c 0,25.19272 20.34589,45.64632 45.47208,45.64632 l 108.94927,0 c 26.27188,0 47.5363,-21.3459 47.5363,-47.71845 l 0,-171.62979 z"
         class="st0" />
      <g
         transform="translate(346.9874,-3.0304576)"
         id="g3131">
        <g
           id="XMLID_42_"
           transform="translate(21.537438,-172.42575)"
           style="fill:#4161ad;fill-opacity:1">
          <g
             id="g8"
             style="fill:#4161ad;fill-opacity:1">
            <path
               class="st1"
               d="m 364.16,563.6 c 9.13,0 16.54,7.41 16.54,16.55 0,9.13 -7.41,16.54 -16.54,16.54 -9.13,0 -16.54,-7.41 -16.54,-16.54 0,-9.14 7.41,-16.55 16.54,-16.55 z"
               id="path10"
               style="fill:#4161ad;fill-opacity:1" />
          </g>
          <g
             id="g12"
             style="fill:#4161ad;fill-opacity:1" />
        </g>
        <g
           id="XMLID_41_"
           transform="translate(21.537438,-172.42575)"
           style="fill:#4161ad;fill-opacity:1">
          <g
             id="g15"
             style="fill:#4161ad;fill-opacity:1">
            <path
               class="st1"
               d="m 420.46,543.32 c 9.13,0 16.54,7.41 16.54,16.55 0,9.13 -7.41,16.54 -16.54,16.54 -9.13,0 -16.54,-7.41 -16.54,-16.54 0.01,-9.15 7.41,-16.55 16.54,-16.55 z"
               id="path17"
               style="fill:#4161ad;fill-opacity:1" />
          </g>
          <g
             id="g19"
             style="fill:#4161ad;fill-opacity:1" />
        </g>
        <g
           id="XMLID_40_"
           transform="translate(20.906848,-172.42575)"
           style="fill:#4161ad;fill-opacity:1">
          <g
             id="g22"
             style="fill:#4161ad;fill-opacity:1">
            <path
               class="st1"
               d="m 479.11,516.33 c 9.13,0 16.54,7.41 16.54,16.55 0,9.13 -7.41,16.54 -16.54,16.54 -9.13,0 -16.54,-7.41 -16.54,-16.54 0,-9.14 7.41,-16.55 16.54,-16.55 z"
               id="path24"
               style="fill:#4161ad;fill-opacity:1" />
          </g>
          <g
             id="g26"
             style="fill:#4161ad;fill-opacity:1" />
        </g>
        <g
           id="XMLID_39_"
           transform="translate(21.537438,-172.42575)"
           style="fill:#4161ad;fill-opacity:1">
          <g
             id="g29"
             style="fill:#4161ad;fill-opacity:1">
            <path
               class="st1"
               d="m 433.42,578.04 58.65,81.31 c -14.65,11.98 -25.93,0 -25.93,0 l -58.63,-81.3 c 0.49,0.39 12.16,9.61 25.91,-0.01 z"
               id="path31"
               style="fill:#4161ad;fill-opacity:1" />
          </g>
          <g
             id="g33"
             style="fill:#4161ad;fill-opacity:1" />
        </g>
        <g
           id="XMLID_38_"
           transform="translate(21.537438,-172.42575)"
           style="fill:#4161ad;fill-opacity:1">
          <g
             id="g36"
             style="fill:#4161ad;fill-opacity:1">
            <path
               class="st1"
               d="m 377.12,626.58 v 32.92 c -14.51,11.35 -25.92,0 -25.92,0 v -61 l 25.92,28.08 z"
               id="path38"
               style="fill:#4161ad;fill-opacity:1" />
          </g>
          <g
             id="g40"
             style="fill:#4161ad;fill-opacity:1" />
        </g>
        <g
           id="XMLID_37_"
           transform="translate(21.537438,-172.42575)"
           style="fill:#4161ad;fill-opacity:1">
          <g
             id="g43"
             style="fill:#4161ad;fill-opacity:1">
            <path
               class="st1"
               d="m 377.12,598.5 56.31,61 c -13.59,11.64 -25.92,0 -25.92,0 l -56.31,-61 c 14.88,9.62 25.92,0 25.92,0 z"
               id="path45"
               style="fill:#4161ad;fill-opacity:1" />
          </g>
          <g
             id="g47"
             style="fill:#4161ad;fill-opacity:1" />
        </g>
        <g
           id="XMLID_36_"
           transform="translate(21.537438,-172.42575)"
           style="fill:#4161ad;fill-opacity:1">
          <g
             id="g50"
             style="fill:#4161ad;fill-opacity:1">
            <polygon
               class="st1"
               points="407.5,578.04 433.42,613.98 433.42,652.12 407.5,624.17 "
               id="polygon52"
               style="fill:#4161ad;fill-opacity:1" />
          </g>
          <g
             id="g54"
             style="fill:#4161ad;fill-opacity:1" />
        </g>
        <g
           id="XMLID_35_"
           transform="translate(21.537438,-172.42575)"
           style="fill:#4161ad;fill-opacity:1">
          <g
             id="g57"
             style="fill:#4161ad;fill-opacity:1">
            <path
               class="st1"
               d="m 492.08,550.72 v 100.66 l -25.93,-36.03 v -64.62 c 0,-0.01 12.4,10.64 25.93,-0.01 z"
               id="path59"
               style="fill:#4161ad;fill-opacity:1" />
          </g>
          <g
             id="g61"
             style="fill:#4161ad;fill-opacity:1" />
        </g>
      </g>
    </g>
  </g>
</svg>
