<?xml version="1.0" encoding="UTF-8" standalone="no"?>
<!-- Created with Inkscape (http://www.inkscape.org/) -->

<svg
   xmlns:dc="http://purl.org/dc/elements/1.1/"
   xmlns:cc="http://creativecommons.org/ns#"
   xmlns:rdf="http://www.w3.org/1999/02/22-rdf-syntax-ns#"
   xmlns:svg="http://www.w3.org/2000/svg"
   xmlns="http://www.w3.org/2000/svg"
   xmlns:sodipodi="http://sodipodi.sourceforge.net/DTD/sodipodi-0.dtd"
   xmlns:inkscape="http://www.inkscape.org/namespaces/inkscape"
   width="204.48"
   height="221.24001"
   id="svg2890"
   version="1.1"
   inkscape:version="0.47 r22583"
   sodipodi:docname="Documento nuevo 2">
  <defs
     id="defs2892">
    <inkscape:perspective
       sodipodi:type="inkscape:persp3d"
       inkscape:vp_x="0 : 526.18109 : 1"
       inkscape:vp_y="0 : 1000 : 0"
       inkscape:vp_z="744.09448 : 526.18109 : 1"
       inkscape:persp3d-origin="372.04724 : 350.78739 : 1"
       id="perspective2898" />
    <inkscape:perspective
       id="perspective2853"
       inkscape:persp3d-origin="0.5 : 0.33333333 : 1"
       inkscape:vp_z="1 : 0.5 : 1"
       inkscape:vp_y="0 : 1000 : 0"
       inkscape:vp_x="0 : 0.5 : 1"
       sodipodi:type="inkscape:persp3d" />
  </defs>
  <sodipodi:namedview
     id="base"
     pagecolor="#ffffff"
     bordercolor="#666666"
     borderopacity="1.0"
     inkscape:pageopacity="0.0"
     inkscape:pageshadow="2"
     inkscape:zoom="0.35"
     inkscape:cx="102.24"
     inkscape:cy="110.62"
     inkscape:document-units="px"
     inkscape:current-layer="layer1"
     showgrid="false"
     inkscape:window-width="1536"
     inkscape:window-height="801"
     inkscape:window-x="-8"
     inkscape:window-y="-8"
     inkscape:window-maximized="1" />
  <metadata
     id="metadata2895">
    <rdf:RDF>
      <cc:Work
         rdf:about="">
        <dc:format>image/svg+xml</dc:format>
        <dc:type
           rdf:resource="http://purl.org/dc/dcmitype/StillImage" />
        <dc:title></dc:title>
      </cc:Work>
    </rdf:RDF>
  </metadata>
  <g
     inkscape:label="Capa 1"
     inkscape:groupmode="layer"
     id="layer1"
     transform="translate(-247.76,-421.74218)">
    <g
       id="g2973">
      <path
         style="fill:#4161ad"
         id="path5"
         d="M 452.24,421.74218 H 293.8 c -25.44,0 -46.04,20.63 -46.04,46.05 v 129.15 c 0,25.41 20.6,46.04 46.04,46.04 h 110.31 c 26.6,0 48.13,-21.53 48.13,-48.13 v -173.11 z"
         class="st0" />
      <g
         transform="translate(-71.71999,-57.367797)"
         id="XMLID_42_">
        <g
           id="g8">
          <path
             style="fill:#ffffff"
             id="path10"
             d="m 364.16,563.6 c 9.13,0 16.54,7.41 16.54,16.55 0,9.13 -7.41,16.54 -16.54,16.54 -9.13,0 -16.54,-7.41 -16.54,-16.54 0,-9.14 7.41,-16.55 16.54,-16.55 z"
             class="st1" />
        </g>
        <g
           id="g12" />
      </g>
      <g
         transform="translate(-71.71999,-57.367797)"
         id="XMLID_41_">
        <g
           id="g15">
          <path
             style="fill:#ffffff"
             id="path17"
             d="m 420.46,543.32 c 9.13,0 16.54,7.41 16.54,16.55 0,9.13 -7.41,16.54 -16.54,16.54 -9.13,0 -16.54,-7.41 -16.54,-16.54 0.01,-9.15 7.41,-16.55 16.54,-16.55 z"
             class="st1" />
        </g>
        <g
           id="g19" />
      </g>
      <g
         transform="translate(-71.71999,-57.367797)"
         id="XMLID_40_">
        <g
           id="g22">
          <path
             style="fill:#ffffff"
             id="path24"
             d="m 479.11,516.33 c 9.13,0 16.54,7.41 16.54,16.55 0,9.13 -7.41,16.54 -16.54,16.54 -9.13,0 -16.54,-7.41 -16.54,-16.54 0,-9.14 7.41,-16.55 16.54,-16.55 z"
             class="st1" />
        </g>
        <g
           id="g26" />
      </g>
      <g
         transform="translate(-71.71999,-57.367797)"
         id="XMLID_39_">
        <g
           id="g29">
          <path
             style="fill:#ffffff"
             id="path31"
             d="m 433.42,578.04 58.65,81.31 c -14.65,11.98 -25.93,0 -25.93,0 l -58.63,-81.3 c 0.49,0.39 12.16,9.61 25.91,-0.01 z"
             class="st1" />
        </g>
        <g
           id="g33" />
      </g>
      <g
         transform="translate(-71.71999,-57.367797)"
         id="XMLID_38_">
        <g
           id="g36">
          <path
             style="fill:#ffffff"
             id="path38"
             d="m 377.12,626.58 v 32.92 c -14.51,11.35 -25.92,0 -25.92,0 v -61 l 25.92,28.08 z"
             class="st1" />
        </g>
        <g
           id="g40" />
      </g>
      <g
         transform="translate(-71.71999,-57.367797)"
         id="XMLID_37_">
        <g
           id="g43">
          <path
             style="fill:#ffffff"
             id="path45"
             d="m 377.12,598.5 56.31,61 c -13.59,11.64 -25.92,0 -25.92,0 l -56.31,-61 c 14.88,9.62 25.92,0 25.92,0 z"
             class="st1" />
        </g>
        <g
           id="g47" />
      </g>
      <g
         transform="translate(-71.71999,-57.367797)"
         id="XMLID_36_">
        <g
           id="g50">
          <polygon
             style="fill:#ffffff"
             id="polygon52"
             points="407.5,578.04 433.42,613.98 433.42,652.12 407.5,624.17 "
             class="st1" />
        </g>
        <g
           id="g54" />
      </g>
      <g
         transform="translate(-71.71999,-57.367797)"
         id="XMLID_35_">
        <g
           id="g57">
          <path
             style="fill:#ffffff"
             id="path59"
             d="m 492.08,550.72 v 100.66 l -25.93,-36.03 v -64.62 c 0,-0.01 12.4,10.64 25.93,-0.01 z"
             class="st1" />
        </g>
        <g
           id="g61" />
      </g>
    </g>
  </g>
</svg>
